<?xml version="1.0" encoding="UTF-8" standalone="no"?>
<!DOCTYPE svg PUBLIC "-//W3C//DTD SVG 1.1//EN" "http://www.w3.org/Graphics/SVG/1.1/DTD/svg11.dtd">
<svg width="100%" height="100%" viewBox="0 0 587 347" version="1.1" xmlns="http://www.w3.org/2000/svg" xmlns:xlink="http://www.w3.org/1999/xlink" xml:space="preserve" xmlns:serif="http://www.serif.com/" style="fill-rule:evenodd;clip-rule:evenodd;stroke-linejoin:round;stroke-miterlimit:2;">
    <g transform="matrix(1,0,0,1,-218.914,-126.575)">
        <g id="logo-dark" serif:id="logo dark">
            <g transform="matrix(18.2292,0,0,18.2292,-6484.02,-4759.06)">
                <g>
                    <path d="M378.396,268.012L378.396,276.508L375.744,276.508L375.744,272.272L374.436,276.508L372.156,276.508L370.848,272.272L370.848,276.508L368.184,276.508L368.184,268.012L371.448,268.012L373.32,273.112L375.144,268.012L378.396,268.012Z" style="fill:rgb(32,35,42);fill-rule:nonzero;"/>
                    <g transform="matrix(1,0,0,1,-9.09495e-13,-1.728)">
                        <path d="M387.24,269.74L382.908,279.748L379.992,279.748L381.696,276.172L378.876,269.74L381.84,269.74L383.112,273.172L384.3,269.74L387.24,269.74Z" style="fill:rgb(32,35,42);fill-rule:nonzero;"/>
                    </g>
                </g>
                <g>
                    <g transform="matrix(0.725601,0,0,0.725601,100.898,74.9025)">
                        <path d="M374.856,281.212L374.856,283.324L372.6,283.324L372.6,289.708L369.936,289.708L369.936,283.324L367.704,283.324L367.704,281.212L374.856,281.212Z" style="fill:rgb(32,35,42);fill-rule:nonzero;"/>
                    </g>
                    <g transform="matrix(0.725601,0,0,0.725601,100.898,76.7659)">
                        <path d="M376.92,282.4C376.456,282.4 376.084,282.276 375.804,282.028C375.524,281.78 375.384,281.468 375.384,281.092C375.384,280.708 375.524,280.39 375.804,280.138C376.084,279.886 376.456,279.76 376.92,279.76C377.376,279.76 377.744,279.886 378.024,280.138C378.304,280.39 378.444,280.708 378.444,281.092C378.444,281.468 378.304,281.78 378.024,282.028C377.744,282.276 377.376,282.4 376.92,282.4ZM378.24,282.94L378.24,289.708L375.576,289.708L375.576,282.94L378.24,282.94Z" style="fill:rgb(32,35,42);fill-rule:nonzero;"/>
                    </g>
                    <g transform="matrix(0.725601,0,0,0.725601,100.898,74.9025)">
                        <path d="M388.476,282.892C389.34,282.892 390.01,283.152 390.486,283.672C390.962,284.192 391.2,284.896 391.2,285.784L391.2,289.708L388.548,289.708L388.548,286.12C388.548,285.832 388.462,285.606 388.29,285.442C388.118,285.278 387.888,285.196 387.6,285.196C387.304,285.196 387.072,285.278 386.904,285.442C386.736,285.606 386.652,285.832 386.652,286.12L386.652,289.708L384,289.708L384,286.12C384,285.832 383.914,285.606 383.742,285.442C383.57,285.278 383.34,285.196 383.052,285.196C382.756,285.196 382.524,285.278 382.356,285.442C382.188,285.606 382.104,285.832 382.104,286.12L382.104,289.708L379.44,289.708L379.44,282.94L382.104,282.94L382.104,283.852C382.296,283.564 382.558,283.332 382.89,283.156C383.222,282.98 383.612,282.892 384.06,282.892C384.548,282.892 384.98,282.998 385.356,283.21C385.732,283.422 386.032,283.72 386.256,284.104C386.504,283.752 386.82,283.462 387.204,283.234C387.588,283.006 388.012,282.892 388.476,282.892Z" style="fill:rgb(32,35,42);fill-rule:nonzero;"/>
                    </g>
                    <g transform="matrix(0.725601,0,0,0.725601,100.898,76.7659)">
                        <path d="M398.904,286.264C398.904,286.448 398.892,286.624 398.868,286.792L394.584,286.792C394.624,287.376 394.868,287.668 395.316,287.668C395.604,287.668 395.812,287.536 395.94,287.272L398.76,287.272C398.664,287.752 398.462,288.182 398.154,288.562C397.846,288.942 397.458,289.242 396.99,289.462C396.522,289.682 396.008,289.792 395.448,289.792C394.776,289.792 394.178,289.652 393.654,289.372C393.13,289.092 392.722,288.69 392.43,288.166C392.138,287.642 391.992,287.028 391.992,286.324C391.992,285.62 392.138,285.006 392.43,284.482C392.722,283.958 393.13,283.556 393.654,283.276C394.178,282.996 394.776,282.856 395.448,282.856C396.12,282.856 396.718,282.994 397.242,283.27C397.766,283.546 398.174,283.94 398.466,284.452C398.758,284.964 398.904,285.568 398.904,286.264ZM396.204,285.628C396.204,285.404 396.132,285.234 395.988,285.118C395.844,285.002 395.664,284.944 395.448,284.944C394.976,284.944 394.7,285.172 394.62,285.628L396.204,285.628Z" style="fill:rgb(32,35,42);fill-rule:nonzero;"/>
                    </g>
                    <g transform="matrix(0.725601,0,0,0.725601,100.898,76.7659)">
                        <path d="M406.296,286.264C406.296,286.448 406.284,286.624 406.26,286.792L401.976,286.792C402.016,287.376 402.26,287.668 402.708,287.668C402.996,287.668 403.204,287.536 403.332,287.272L406.152,287.272C406.056,287.752 405.854,288.182 405.546,288.562C405.238,288.942 404.85,289.242 404.382,289.462C403.914,289.682 403.4,289.792 402.84,289.792C402.168,289.792 401.57,289.652 401.046,289.372C400.522,289.092 400.114,288.69 399.822,288.166C399.53,287.642 399.384,287.028 399.384,286.324C399.384,285.62 399.53,285.006 399.822,284.482C400.114,283.958 400.522,283.556 401.046,283.276C401.57,282.996 402.168,282.856 402.84,282.856C403.512,282.856 404.11,282.994 404.634,283.27C405.158,283.546 405.566,283.94 405.858,284.452C406.15,284.964 406.296,285.568 406.296,286.264ZM403.596,285.628C403.596,285.404 403.524,285.234 403.38,285.118C403.236,285.002 403.056,284.944 402.84,284.944C402.368,284.944 402.092,285.172 402.012,285.628L403.596,285.628Z" style="fill:rgb(32,35,42);fill-rule:nonzero;"/>
                    </g>
                    <g transform="matrix(0.725601,0,0,0.725601,100.898,76.7659)">
                        <path d="M409.8,284.188C410.072,283.796 410.404,283.482 410.796,283.246C411.188,283.01 411.596,282.892 412.02,282.892L412.02,285.736L411.264,285.736C410.76,285.736 410.39,285.824 410.154,286C409.918,286.176 409.8,286.488 409.8,286.936L409.8,289.708L407.136,289.708L407.136,282.94L409.8,282.94L409.8,284.188Z" style="fill:rgb(32,35,42);fill-rule:nonzero;"/>
                    </g>
                </g>
            </g>
            <g id="Timer" transform="matrix(9.47752,7.00948e-31,-1.16825e-31,9.47752,-128.45,-333.085)">
                <path d="M87.09,48.509C93.489,49.064 98.5,54.543 98.5,60.982C98.5,64.541 96.979,67.944 94.328,70.318C92.03,72.376 89.046,73.5 85.97,73.5C85.501,73.5 85.029,73.473 84.558,73.421C78.919,72.786 74.311,68.237 73.602,62.603C73.111,58.704 74.409,54.885 77.162,52.129C77.617,51.673 78.354,51.673 78.81,52.129C79.264,52.585 79.264,53.323 78.809,53.779C76.57,56.023 75.514,59.132 75.915,62.312C76.491,66.889 80.235,70.585 84.818,71.101C87.763,71.435 90.589,70.536 92.775,68.578C94.932,66.647 96.169,63.878 96.169,60.982C96.169,55.836 92.237,51.444 87.165,50.861L87.165,54.279C87.165,54.923 86.643,55.446 86,55.446C85.357,55.446 84.835,54.923 84.835,54.279L84.835,50.572C84.835,49.995 85.079,49.44 85.503,49.049C85.932,48.656 86.513,48.454 87.09,48.509ZM83.275,61.25L79.525,54.772C79.433,54.612 79.612,54.433 79.772,54.525L86.248,58.275C87.661,59.093 87.903,60.658 86.847,61.848C85.659,62.902 84.091,62.66 83.275,61.25Z" style="fill:rgb(0,192,235);"/>
            </g>
        </g>
    </g>
</svg>
